# xmcd
#
# Track frame offsets:
#	150
#	16714
#	31877
#	48562
#	65476
#	84749
#	101987
#	120143
#	136221
#	153917
#	171037
#	188284
#	206881
#	227935
#	242383
#	254993
#	269701
#	292025
#
# Disc length: 4104 seconds
#
# Revision: 1
# Processed by: cddbd v1.5.2PL0 Copyright (c) Steve Scherf et al.
# Submitted via: audiograbber 1.83.01
#
DISCID=fe100612
DTITLE=Various Artist - NOW That's What I Call Country #1s
DYEAR=2016
DGENRE=Country
TTITLE0=Keith Urban - John Cougar, John Deere, John 3:16
TTITLE1=Luke Bryan - Drink A Beer
TTITLE2=Jason Aldeam - Burnin It Down
TTITLE3=Carrie Underwood - Jesus Take The Wheel
TTITLE4=Lady Antebellum - I Run To You
TTITLE5=Hunter Hayes - Wanted
TTITLE6=Sam Hunt - Take Your Time
TTITLE7=Rascal Flatts - What Hurts The Most
TTITLE8=Miranda Lambert - The House That Built Me
TTITLE9=Brad Paisley - She's Everything
TTITLE10=Brett Eldredge - Mean To Me
TTITLE11=Kenny Chesney - Come Over
TTITLE12=Dierks Bentley - I Hold On
TTITLE13=Cole Swindell - Aint Worth The Whiskey
TTITLE14=Jake Owen - Barefoot Blue Jean Night
TTITLE15=Tyler Farr - A Guy Walks Into A Bar
TTITLE16=Darius Rucker - Wagon Wheel
TTITLE17=Little Big Town - Pontoon
EXTD=
EXTT0=
EXTT1=
EXTT2=
EXTT3=
EXTT4=
EXTT5=
EXTT6=
EXTT7=
EXTT8=
EXTT9=
EXTT10=
EXTT11=
EXTT12=
EXTT13=
EXTT14=
EXTT15=
EXTT16=
EXTT17=
PLAYORDER=
